FILE "Atomic Habits - James Clear (2018).m4b" MP3
TRACK 1 AUDIO
  TITLE "Opening Credits"
  INDEX 01 0:00:00
TRACK 2 AUDIO
  TITLE "Introduction: My Story	"
  INDEX 01 0:45:44
TRACK 3 AUDIO
  TITLE "The Fundamentals: Why Tiny Changes Make a Big Difference"
  INDEX 01 17:39:53
TRACK 4 AUDIO
  TITLE "1: The Surprising Power of Atomic Habits"
  INDEX 01 17:45:53
TRACK 5 AUDIO
  TITLE "2: How Your Habits Shape Your Identity (and Vice Versa)"
  INDEX 01 42:29:69
TRACK 6 AUDIO
  TITLE "3: How to Build Better Habits in 4 Simple Steps"
  INDEX 01 62:17:22
TRACK 7 AUDIO
  TITLE "The 1st Law: Make It Obvious"
  INDEX 01 81:08:04
TRACK 8 AUDIO
  TITLE "4: The Man Who Didn’t Look Right"
  INDEX 01 81:11:04
TRACK 9 AUDIO
  TITLE "5: The Best Way to Start a New Habit"
  INDEX 01 94:21:54
TRACK 10 AUDIO
  TITLE "6: Motivation Is Overrated; Environment Often Matters More"
  INDEX 01 109:43:17
TRACK 11 AUDIO
  TITLE "7: The Secret to Self-Control"
  INDEX 01 125:13:62
TRACK 12 AUDIO
  TITLE "The 2nd Law: Make It Attractive"
  INDEX 01 134:16:26
TRACK 13 AUDIO
  TITLE "8: How to Make a Habit Irresistible"
  INDEX 01 134:19:26
TRACK 14 AUDIO
  TITLE "9: The Role of Family and Friends in Shaping Your Habits"
  INDEX 01 151:46:54
TRACK 15 AUDIO
  TITLE "10: How to Find and Fix the Causes of Your Bad Habits"
  INDEX 01 167:22:12
TRACK 16 AUDIO
  TITLE "The 3rd Law: Make It Easy"
  INDEX 01 183:31:13
TRACK 17 AUDIO
  TITLE "11: Walk Slowly, but Never Backward"
  INDEX 01 183:34:13
TRACK 18 AUDIO
  TITLE "12: The Law of Least Effort"
  INDEX 01 192:33:20
TRACK 19 AUDIO
  TITLE "13: How to Stop Procrastinating by Using the Two-Minute Rule"
  INDEX 01 208:01:62
TRACK 20 AUDIO
  TITLE "14: How to Make Good Habits Inevitable and Bad Habits Impossible"
  INDEX 01 220:10:32
TRACK 21 AUDIO
  TITLE "The 4th Law: Make It Satisfying"
  INDEX 01 233:41:23
TRACK 22 AUDIO
  TITLE "15: The Cardinal Rule of Behavior Change"
  INDEX 01 233:45:23
TRACK 23 AUDIO
  TITLE "16: How to Stick with Good Habits Every Day"
  INDEX 01 252:11:59
TRACK 24 AUDIO
  TITLE "17: How an Accountability Partner Can Change Everything"
  INDEX 01 268:07:56
TRACK 25 AUDIO
  TITLE "Advanced Tactics: How to Go from Being Merely Good to Being Truly Great"
  INDEX 01 279:52:11
TRACK 26 AUDIO
  TITLE "18: The Truth About Talent (When Genes Matter and When They Don’t)"
  INDEX 01 279:58:11
TRACK 27 AUDIO
  TITLE "19: The Goldilocks Rule: How to Stay Motivated in Life and Work"
  INDEX 01 299:35:61
TRACK 28 AUDIO
  TITLE "20: The Downside of Creating Good Habits"
  INDEX 01 311:41:22
TRACK 29 AUDIO
  TITLE "Conclusion: The Secret to Results That Last"
  INDEX 01 328:45:64
TRACK 30 AUDIO
  TITLE "Appendix"
  INDEX 01 333:00:25
TRACK 31 AUDIO
  TITLE "What Should You Read Next?"
  INDEX 01 333:03:25
TRACK 32 AUDIO
  TITLE "How to Apply These Ideas to Business"
  INDEX 01 333:46:10
TRACK 33 AUDIO
  TITLE "How to Apply These Ideas to Parenting"
  INDEX 01 334:18:23
TRACK 34 AUDIO
  TITLE "End Credits"
  INDEX 01 334:54:23
